<?xml version="1.0" encoding="UTF-8" standalone="no"?>
<!DOCTYPE svg PUBLIC "-//W3C//DTD SVG 1.1//EN"
 "http://www.w3.org/Graphics/SVG/1.1/DTD/svg11.dtd">
<!-- Generated by graphviz version 2.40.1 (20161225.0304)
 -->
<!-- Title: G Pages: 1 -->
<svg width="671pt" height="1491pt"
 viewBox="0.00 0.00 670.87 1491.00" xmlns="http://www.w3.org/2000/svg" xmlns:xlink="http://www.w3.org/1999/xlink">
<g id="graph0" class="graph" transform="scale(1 1) rotate(0) translate(4 1487)">
<title>G</title>
<polygon fill="#ffffff" stroke="transparent" points="-4,4 -4,-1487 666.8679,-1487 666.8679,4 -4,4"/>
<g id="clust1" class="cluster">
<title>cluster_Global</title>
<path fill="none" stroke="#c0c0c0" d="M441.6443,-8C441.6443,-8 642.8679,-8 642.8679,-8 648.8679,-8 654.8679,-14 654.8679,-20 654.8679,-20 654.8679,-1463 654.8679,-1463 654.8679,-1469 648.8679,-1475 642.8679,-1475 642.8679,-1475 441.6443,-1475 441.6443,-1475 435.6443,-1475 429.6443,-1469 429.6443,-1463 429.6443,-1463 429.6443,-20 429.6443,-20 429.6443,-14 435.6443,-8 441.6443,-8"/>
<text text-anchor="middle" x="542.2561" y="-1462.2" font-family="Times,serif" font-size="11.00" fill="#c0c0c0">Global</text>
</g>
<g id="clust2" class="cluster">
<title>cluster_\OhMyBrew</title>
<path fill="none" stroke="#c0c0c0" d="M449.6443,-114C449.6443,-114 634.8679,-114 634.8679,-114 640.8679,-114 646.8679,-120 646.8679,-126 646.8679,-126 646.8679,-1436 646.8679,-1436 646.8679,-1442 640.8679,-1448 634.8679,-1448 634.8679,-1448 449.6443,-1448 449.6443,-1448 443.6443,-1448 437.6443,-1442 437.6443,-1436 437.6443,-1436 437.6443,-126 437.6443,-126 437.6443,-120 443.6443,-114 449.6443,-114"/>
<text text-anchor="middle" x="542.2561" y="-1435.2" font-family="Times,serif" font-size="11.00" fill="#c0c0c0">OhMyBrew</text>
</g>
<g id="clust3" class="cluster">
<title>cluster_\OhMyBrew\ShopifyApp</title>
<path fill="none" stroke="#c0c0c0" d="M457.6443,-122C457.6443,-122 626.8679,-122 626.8679,-122 632.8679,-122 638.8679,-128 638.8679,-134 638.8679,-134 638.8679,-1409 638.8679,-1409 638.8679,-1415 632.8679,-1421 626.8679,-1421 626.8679,-1421 457.6443,-1421 457.6443,-1421 451.6443,-1421 445.6443,-1415 445.6443,-1409 445.6443,-1409 445.6443,-134 445.6443,-134 445.6443,-128 451.6443,-122 457.6443,-122"/>
<text text-anchor="middle" x="542.2561" y="-1408.2" font-family="Times,serif" font-size="11.00" fill="#c0c0c0">ShopifyApp</text>
</g>
<g id="clust6" class="cluster">
<title>cluster_\OhMyBrew\ShopifyApp\Libraries</title>
<path fill="none" stroke="#c0c0c0" d="M501.9502,-1323C501.9502,-1323 582.562,-1323 582.562,-1323 588.562,-1323 594.562,-1329 594.562,-1335 594.562,-1335 594.562,-1382 594.562,-1382 594.562,-1388 588.562,-1394 582.562,-1394 582.562,-1394 501.9502,-1394 501.9502,-1394 495.9502,-1394 489.9502,-1388 489.9502,-1382 489.9502,-1382 489.9502,-1335 489.9502,-1335 489.9502,-1329 495.9502,-1323 501.9502,-1323"/>
<text text-anchor="middle" x="542.2561" y="-1381.2" font-family="Times,serif" font-size="11.00" fill="#c0c0c0">Libraries</text>
</g>
<g id="clust7" class="cluster">
<title>cluster_\OhMyBrew\ShopifyApp\Models</title>
<path fill="none" stroke="#c0c0c0" d="M519.2561,-1244C519.2561,-1244 565.2561,-1244 565.2561,-1244 571.2561,-1244 577.2561,-1250 577.2561,-1256 577.2561,-1256 577.2561,-1303 577.2561,-1303 577.2561,-1309 571.2561,-1315 565.2561,-1315 565.2561,-1315 519.2561,-1315 519.2561,-1315 513.2561,-1315 507.2561,-1309 507.2561,-1303 507.2561,-1303 507.2561,-1256 507.2561,-1256 507.2561,-1250 513.2561,-1244 519.2561,-1244"/>
<text text-anchor="middle" x="542.2561" y="-1302.2" font-family="Times,serif" font-size="11.00" fill="#c0c0c0">Models</text>
</g>
<g id="clust8" class="cluster">
<title>cluster_\OhMyBrew\ShopifyApp\Facades</title>
<path fill="none" stroke="#c0c0c0" d="M505.2507,-1165C505.2507,-1165 579.2614,-1165 579.2614,-1165 585.2614,-1165 591.2614,-1171 591.2614,-1177 591.2614,-1177 591.2614,-1224 591.2614,-1224 591.2614,-1230 585.2614,-1236 579.2614,-1236 579.2614,-1236 505.2507,-1236 505.2507,-1236 499.2507,-1236 493.2507,-1230 493.2507,-1224 493.2507,-1224 493.2507,-1177 493.2507,-1177 493.2507,-1171 499.2507,-1165 505.2507,-1165"/>
<text text-anchor="middle" x="542.2561" y="-1223.2" font-family="Times,serif" font-size="11.00" fill="#c0c0c0">Facades</text>
</g>
<g id="clust9" class="cluster">
<title>cluster_\OhMyBrew\ShopifyApp\Jobs</title>
<path fill="none" stroke="#c0c0c0" d="M478.8464,-1032C478.8464,-1032 605.6657,-1032 605.6657,-1032 611.6657,-1032 617.6657,-1038 617.6657,-1044 617.6657,-1044 617.6657,-1145 617.6657,-1145 617.6657,-1151 611.6657,-1157 605.6657,-1157 605.6657,-1157 478.8464,-1157 478.8464,-1157 472.8464,-1157 466.8464,-1151 466.8464,-1145 466.8464,-1145 466.8464,-1044 466.8464,-1044 466.8464,-1038 472.8464,-1032 478.8464,-1032"/>
<text text-anchor="middle" x="542.2561" y="-1144.2" font-family="Times,serif" font-size="11.00" fill="#c0c0c0">Jobs</text>
</g>
<g id="clust10" class="cluster">
<title>cluster_\OhMyBrew\ShopifyApp\Controllers</title>
<path fill="none" stroke="#c0c0c0" d="M482.1469,-791C482.1469,-791 602.3652,-791 602.3652,-791 608.3652,-791 614.3652,-797 614.3652,-803 614.3652,-803 614.3652,-1012 614.3652,-1012 614.3652,-1018 608.3652,-1024 602.3652,-1024 602.3652,-1024 482.1469,-1024 482.1469,-1024 476.1469,-1024 470.1469,-1018 470.1469,-1012 470.1469,-1012 470.1469,-803 470.1469,-803 470.1469,-797 476.1469,-791 482.1469,-791"/>
<text text-anchor="middle" x="542.2561" y="-1011.2" font-family="Times,serif" font-size="11.00" fill="#c0c0c0">Controllers</text>
</g>
<g id="clust11" class="cluster">
<title>cluster_\OhMyBrew\ShopifyApp\Console</title>
<path fill="none" stroke="#c0c0c0" d="M468.9448,-712C468.9448,-712 615.5674,-712 615.5674,-712 621.5674,-712 627.5674,-718 627.5674,-724 627.5674,-724 627.5674,-771 627.5674,-771 627.5674,-777 621.5674,-783 615.5674,-783 615.5674,-783 468.9448,-783 468.9448,-783 462.9448,-783 456.9448,-777 456.9448,-771 456.9448,-771 456.9448,-724 456.9448,-724 456.9448,-718 462.9448,-712 468.9448,-712"/>
<text text-anchor="middle" x="542.2561" y="-770.2" font-family="Times,serif" font-size="11.00" fill="#c0c0c0">Console</text>
</g>
<g id="clust4" class="cluster">
<title>cluster_\OhMyBrew\ShopifyApp\Middleware</title>
<path fill="none" stroke="#c0c0c0" d="M501.9502,-471C501.9502,-471 582.562,-471 582.562,-471 588.562,-471 594.562,-477 594.562,-483 594.562,-483 594.562,-692 594.562,-692 594.562,-698 588.562,-704 582.562,-704 582.562,-704 501.9502,-704 501.9502,-704 495.9502,-704 489.9502,-698 489.9502,-692 489.9502,-692 489.9502,-483 489.9502,-483 489.9502,-477 495.9502,-471 501.9502,-471"/>
<text text-anchor="middle" x="542.2561" y="-691.2" font-family="Times,serif" font-size="11.00" fill="#c0c0c0">Middleware</text>
</g>
<g id="clust5" class="cluster">
<title>cluster_\OhMyBrew\ShopifyApp\Traits</title>
<path fill="none" stroke="#c0c0c0" d="M465.6443,-230C465.6443,-230 618.8679,-230 618.8679,-230 624.8679,-230 630.8679,-236 630.8679,-242 630.8679,-242 630.8679,-451 630.8679,-451 630.8679,-457 624.8679,-463 618.8679,-463 618.8679,-463 465.6443,-463 465.6443,-463 459.6443,-463 453.6443,-457 453.6443,-451 453.6443,-451 453.6443,-242 453.6443,-242 453.6443,-236 459.6443,-230 465.6443,-230"/>
<text text-anchor="middle" x="542.2561" y="-450.2" font-family="Times,serif" font-size="11.00" fill="#c0c0c0">Traits</text>
</g>
<!-- \\OhMyBrew\\ShopifyApp\\Middleware\\AuthProxy -->
<g id="node1" class="node">
<title>\\OhMyBrew\\ShopifyApp\\Middleware\\AuthProxy</title>
<polygon fill="none" stroke="#000000" points="580.1669,-677 504.3453,-677 504.3453,-641 580.1669,-641 580.1669,-677"/>
<text text-anchor="middle" x="542.2561" y="-655.7" font-family="Courier,monospace" font-size="11.00" fill="#000000">AuthProxy</text>
</g>
<!-- \\OhMyBrew\\ShopifyApp\\Middleware\\Billable -->
<g id="node2" class="node">
<title>\\OhMyBrew\\ShopifyApp\\Middleware\\Billable</title>
<polygon fill="none" stroke="#000000" points="576.5649,-623 507.9472,-623 507.9472,-587 576.5649,-587 576.5649,-623"/>
<text text-anchor="middle" x="542.2561" y="-601.7" font-family="Courier,monospace" font-size="11.00" fill="#000000">Billable</text>
</g>
<!-- \\OhMyBrew\\ShopifyApp\\Middleware\\AuthWebhook -->
<g id="node3" class="node">
<title>\\OhMyBrew\\ShopifyApp\\Middleware\\AuthWebhook</title>
<polygon fill="none" stroke="#000000" points="586.3687,-569 498.1434,-569 498.1434,-533 586.3687,-533 586.3687,-569"/>
<text text-anchor="middle" x="542.2561" y="-547.7" font-family="Courier,monospace" font-size="11.00" fill="#000000">AuthWebhook</text>
</g>
<!-- \\OhMyBrew\\ShopifyApp\\Middleware\\AuthShop -->
<g id="node4" class="node">
<title>\\OhMyBrew\\ShopifyApp\\Middleware\\AuthShop</title>
<polygon fill="none" stroke="#000000" points="576.5649,-515 507.9472,-515 507.9472,-479 576.5649,-479 576.5649,-515"/>
<text text-anchor="middle" x="542.2561" y="-493.7" font-family="Courier,monospace" font-size="11.00" fill="#000000">AuthShop</text>
</g>
<!-- \\OhMyBrew\\ShopifyApp\\Traits\\BillingControllerTrait -->
<g id="node5" class="node">
<title>\\OhMyBrew\\ShopifyApp\\Traits\\BillingControllerTrait</title>
<polygon fill="none" stroke="#000000" points="622.9799,-436 461.5323,-436 461.5323,-400 622.9799,-400 622.9799,-436"/>
<text text-anchor="middle" x="542.2561" y="-414.7" font-family="Courier,monospace" font-size="11.00" fill="#000000">BillingControllerTrait</text>
</g>
<!-- \\OhMyBrew\\ShopifyApp\\Traits\\AuthControllerTrait -->
<g id="node6" class="node">
<title>\\OhMyBrew\\ShopifyApp\\Traits\\AuthControllerTrait</title>
<polygon fill="none" stroke="#000000" points="613.1771,-382 471.335,-382 471.335,-346 613.1771,-346 613.1771,-382"/>
<text text-anchor="middle" x="542.2561" y="-360.7" font-family="Courier,monospace" font-size="11.00" fill="#000000">AuthControllerTrait</text>
</g>
<!-- \\OhMyBrew\\ShopifyApp\\Traits\\WebhookControllerTrait -->
<g id="node7" class="node">
<title>\\OhMyBrew\\ShopifyApp\\Traits\\WebhookControllerTrait</title>
<polygon fill="none" stroke="#000000" points="622.9799,-328 461.5323,-328 461.5323,-292 622.9799,-292 622.9799,-328"/>
<text text-anchor="middle" x="542.2561" y="-306.7" font-family="Courier,monospace" font-size="11.00" fill="#000000">WebhookControllerTrait</text>
</g>
<!-- \\OhMyBrew\\ShopifyApp\\Traits\\HomeControllerTrait -->
<g id="node8" class="node">
<title>\\OhMyBrew\\ShopifyApp\\Traits\\HomeControllerTrait</title>
<polygon fill="none" stroke="#000000" points="613.1771,-274 471.335,-274 471.335,-238 613.1771,-238 613.1771,-274"/>
<text text-anchor="middle" x="542.2561" y="-252.7" font-family="Courier,monospace" font-size="11.00" fill="#000000">HomeControllerTrait</text>
</g>
<!-- \\OhMyBrew\\ShopifyApp\\Libraries\\BillingPlan -->
<g id="node9" class="node">
<title>\\OhMyBrew\\ShopifyApp\\Libraries\\BillingPlan</title>
<polygon fill="none" stroke="#000000" points="586.3687,-1367 498.1434,-1367 498.1434,-1331 586.3687,-1331 586.3687,-1367"/>
<text text-anchor="middle" x="542.2561" y="-1345.7" font-family="Courier,monospace" font-size="11.00" fill="#000000">BillingPlan</text>
</g>
<!-- \\OhMyBrew\\ShopifyApp\\Models\\Shop -->
<g id="node10" class="node">
<title>\\OhMyBrew\\ShopifyApp\\Models\\Shop</title>
<polygon fill="none" stroke="#000000" points="569.2561,-1288 515.2561,-1288 515.2561,-1252 569.2561,-1252 569.2561,-1288"/>
<text text-anchor="middle" x="542.2561" y="-1266.7" font-family="Courier,monospace" font-size="11.00" fill="#000000">Shop</text>
</g>
<!-- \\Illuminate\\Database\\Eloquent\\Model -->
<g id="node24" class="node">
<title>\\Illuminate\\Database\\Eloquent\\Model</title>
<ellipse fill="none" stroke="#000000" cx="194.8221" cy="-1270" rx="143.9092" ry="18"/>
<text text-anchor="middle" x="194.8221" y="-1265.8" font-family="Times,serif" font-size="14.00" fill="#c0c0c0">\Illuminate\Database\Eloquent\Model</text>
</g>
<!-- \\OhMyBrew\\ShopifyApp\\Models\\Shop&#45;&gt;\\Illuminate\\Database\\Eloquent\\Model -->
<g id="edge3" class="edge">
<title>\\OhMyBrew\\ShopifyApp\\Models\\Shop&#45;&gt;\\Illuminate\\Database\\Eloquent\\Model</title>
<path fill="none" stroke="#000000" d="M514.9935,-1270C478.7783,-1270 411.9925,-1270 348.7511,-1270"/>
<polygon fill="none" stroke="#000000" points="348.637,-1266.5001 338.6369,-1270 348.6369,-1273.5001 348.637,-1266.5001"/>
</g>
<!-- \\OhMyBrew\\ShopifyApp\\Facades\\ShopifyApp -->
<g id="node11" class="node">
<title>\\OhMyBrew\\ShopifyApp\\Facades\\ShopifyApp</title>
<polygon fill="none" stroke="#000000" points="583.2668,-1209 501.2453,-1209 501.2453,-1173 583.2668,-1173 583.2668,-1209"/>
<text text-anchor="middle" x="542.2561" y="-1187.7" font-family="Courier,monospace" font-size="11.00" fill="#000000">ShopifyApp</text>
</g>
<!-- \\Illuminate\\Support\\Facades\\Facade -->
<g id="node26" class="node">
<title>\\Illuminate\\Support\\Facades\\Facade</title>
<ellipse fill="none" stroke="#000000" cx="194.8221" cy="-1191" rx="137.6208" ry="18"/>
<text text-anchor="middle" x="194.8221" y="-1186.8" font-family="Times,serif" font-size="14.00" fill="#c0c0c0">\Illuminate\Support\Facades\Facade</text>
</g>
<!-- \\OhMyBrew\\ShopifyApp\\Facades\\ShopifyApp&#45;&gt;\\Illuminate\\Support\\Facades\\Facade -->
<g id="edge5" class="edge">
<title>\\OhMyBrew\\ShopifyApp\\Facades\\ShopifyApp&#45;&gt;\\Illuminate\\Support\\Facades\\Facade</title>
<path fill="none" stroke="#000000" d="M501.0365,-1191C461.8662,-1191 400.5683,-1191 343.0743,-1191"/>
<polygon fill="none" stroke="#000000" points="342.765,-1187.5001 332.7649,-1191 342.7649,-1194.5001 342.765,-1187.5001"/>
</g>
<!-- \\OhMyBrew\\ShopifyApp\\Jobs\\WebhookInstaller -->
<g id="node12" class="node">
<title>\\OhMyBrew\\ShopifyApp\\Jobs\\WebhookInstaller</title>
<polygon fill="none" stroke="#000000" points="602.8739,-1130 481.6383,-1130 481.6383,-1094 602.8739,-1094 602.8739,-1130"/>
<text text-anchor="middle" x="542.2561" y="-1108.7" font-family="Courier,monospace" font-size="11.00" fill="#000000">WebhookInstaller</text>
</g>
<!-- \\Illuminate\\Contracts\\Queue\\ShouldQueue -->
<g id="node27" class="node">
<title>\\Illuminate\\Contracts\\Queue\\ShouldQueue</title>
<ellipse fill="none" stroke="#000000" cx="194.8221" cy="-1085" rx="161.2915" ry="18"/>
<text text-anchor="middle" x="194.8221" y="-1080.8" font-family="Times,serif" font-size="14.00" fill="#c0c0c0">\Illuminate\Contracts\Queue\ShouldQueue</text>
</g>
<!-- \\OhMyBrew\\ShopifyApp\\Jobs\\WebhookInstaller&#45;&gt;\\Illuminate\\Contracts\\Queue\\ShouldQueue -->
<g id="edge6" class="edge">
<title>\\OhMyBrew\\ShopifyApp\\Jobs\\WebhookInstaller&#45;&gt;\\Illuminate\\Contracts\\Queue\\ShouldQueue</title>
<path fill="none" stroke="#000000" stroke-dasharray="1,5" d="M481.3401,-1107.2661C441.4746,-1104.168 387.6458,-1099.9848 337.408,-1096.0807"/>
<polygon fill="none" stroke="#000000" points="337.6547,-1092.5894 327.4135,-1095.304 337.1123,-1099.5684 337.6547,-1092.5894"/>
</g>
<!-- \\OhMyBrew\\ShopifyApp\\Jobs\\ScripttagInstaller -->
<g id="node13" class="node">
<title>\\OhMyBrew\\ShopifyApp\\Jobs\\ScripttagInstaller</title>
<polygon fill="none" stroke="#000000" points="609.5755,-1076 474.9366,-1076 474.9366,-1040 609.5755,-1040 609.5755,-1076"/>
<text text-anchor="middle" x="542.2561" y="-1054.7" font-family="Courier,monospace" font-size="11.00" fill="#000000">ScripttagInstaller</text>
</g>
<!-- \\OhMyBrew\\ShopifyApp\\Jobs\\ScripttagInstaller&#45;&gt;\\Illuminate\\Contracts\\Queue\\ShouldQueue -->
<g id="edge7" class="edge">
<title>\\OhMyBrew\\ShopifyApp\\Jobs\\ScripttagInstaller&#45;&gt;\\Illuminate\\Contracts\\Queue\\ShouldQueue</title>
<path fill="none" stroke="#000000" stroke-dasharray="1,5" d="M474.8554,-1063.2379C435.7984,-1066.2731 385.0913,-1070.2137 337.5776,-1073.9061"/>
<polygon fill="none" stroke="#000000" points="337.1912,-1070.4255 327.4925,-1074.6898 337.7336,-1077.4044 337.1912,-1070.4255"/>
</g>
<!-- \\OhMyBrew\\ShopifyApp\\Controllers\\BillingController -->
<g id="node14" class="node">
<title>\\OhMyBrew\\ShopifyApp\\Controllers\\BillingController</title>
<polygon fill="none" stroke="#000000" points="606.4745,-997 478.0376,-997 478.0376,-961 606.4745,-961 606.4745,-997"/>
<text text-anchor="middle" x="542.2561" y="-975.7" font-family="Courier,monospace" font-size="11.00" fill="#000000">BillingController</text>
</g>
<!-- \\Illuminate\\Routing\\Controller -->
<g id="node28" class="node">
<title>\\Illuminate\\Routing\\Controller</title>
<ellipse fill="none" stroke="#000000" cx="194.8221" cy="-898" rx="118.8452" ry="18"/>
<text text-anchor="middle" x="194.8221" y="-893.8" font-family="Times,serif" font-size="14.00" fill="#c0c0c0">\Illuminate\Routing\Controller</text>
</g>
<!-- \\OhMyBrew\\ShopifyApp\\Controllers\\BillingController&#45;&gt;\\Illuminate\\Routing\\Controller -->
<g id="edge8" class="edge">
<title>\\OhMyBrew\\ShopifyApp\\Controllers\\BillingController&#45;&gt;\\Illuminate\\Routing\\Controller</title>
<path fill="none" stroke="#000000" d="M478.1264,-964.049C419.1278,-950.2941 331.6254,-929.894 269.5001,-915.4103"/>
<polygon fill="none" stroke="#000000" points="270.289,-912.0004 259.7555,-913.1384 268.6996,-918.8176 270.289,-912.0004"/>
</g>
<!-- \\OhMyBrew\\ShopifyApp\\Controllers\\HomeController -->
<g id="node15" class="node">
<title>\\OhMyBrew\\ShopifyApp\\Controllers\\HomeController</title>
<polygon fill="none" stroke="#000000" points="596.6719,-943 487.8402,-943 487.8402,-907 596.6719,-907 596.6719,-943"/>
<text text-anchor="middle" x="542.2561" y="-921.7" font-family="Courier,monospace" font-size="11.00" fill="#000000">HomeController</text>
</g>
<!-- \\OhMyBrew\\ShopifyApp\\Controllers\\HomeController&#45;&gt;\\Illuminate\\Routing\\Controller -->
<g id="edge9" class="edge">
<title>\\OhMyBrew\\ShopifyApp\\Controllers\\HomeController&#45;&gt;\\Illuminate\\Routing\\Controller</title>
<path fill="none" stroke="#000000" d="M487.9695,-920.7813C440.7011,-917.1079 370.5672,-911.6576 310.7503,-907.0091"/>
<polygon fill="none" stroke="#000000" points="310.72,-903.4963 300.4789,-906.2109 310.1776,-910.4752 310.72,-903.4963"/>
</g>
<!-- \\OhMyBrew\\ShopifyApp\\Controllers\\AuthController -->
<g id="node16" class="node">
<title>\\OhMyBrew\\ShopifyApp\\Controllers\\AuthController</title>
<polygon fill="none" stroke="#000000" points="596.6719,-889 487.8402,-889 487.8402,-853 596.6719,-853 596.6719,-889"/>
<text text-anchor="middle" x="542.2561" y="-867.7" font-family="Courier,monospace" font-size="11.00" fill="#000000">AuthController</text>
</g>
<!-- \\OhMyBrew\\ShopifyApp\\Controllers\\AuthController&#45;&gt;\\Illuminate\\Routing\\Controller -->
<g id="edge10" class="edge">
<title>\\OhMyBrew\\ShopifyApp\\Controllers\\AuthController&#45;&gt;\\Illuminate\\Routing\\Controller</title>
<path fill="none" stroke="#000000" d="M487.9695,-875.2188C440.7011,-878.8921 370.5672,-884.3424 310.7503,-888.9909"/>
<polygon fill="none" stroke="#000000" points="310.1776,-885.5248 300.4789,-889.7891 310.72,-892.5037 310.1776,-885.5248"/>
</g>
<!-- \\OhMyBrew\\ShopifyApp\\Controllers\\WebhookController -->
<g id="node17" class="node">
<title>\\OhMyBrew\\ShopifyApp\\Controllers\\WebhookController</title>
<polygon fill="none" stroke="#000000" points="606.4745,-835 478.0376,-835 478.0376,-799 606.4745,-799 606.4745,-835"/>
<text text-anchor="middle" x="542.2561" y="-813.7" font-family="Courier,monospace" font-size="11.00" fill="#000000">WebhookController</text>
</g>
<!-- \\OhMyBrew\\ShopifyApp\\Controllers\\WebhookController&#45;&gt;\\Illuminate\\Routing\\Controller -->
<g id="edge11" class="edge">
<title>\\OhMyBrew\\ShopifyApp\\Controllers\\WebhookController&#45;&gt;\\Illuminate\\Routing\\Controller</title>
<path fill="none" stroke="#000000" d="M478.1264,-831.951C419.1278,-845.7059 331.6254,-866.106 269.5001,-880.5897"/>
<polygon fill="none" stroke="#000000" points="268.6996,-877.1824 259.7555,-882.8616 270.289,-883.9996 268.6996,-877.1824"/>
</g>
<!-- \\OhMyBrew\\ShopifyApp\\Console\\WebhookJobMakeCommand -->
<g id="node18" class="node">
<title>\\OhMyBrew\\ShopifyApp\\Console\\WebhookJobMakeCommand</title>
<polygon fill="none" stroke="#000000" points="619.3791,-756 465.1331,-756 465.1331,-720 619.3791,-720 619.3791,-756"/>
<text text-anchor="middle" x="542.2561" y="-734.7" font-family="Courier,monospace" font-size="11.00" fill="#000000">WebhookJobMakeCommand</text>
</g>
<!-- \\Illuminate\\Foundation\\Console\\JobMakeCommand -->
<g id="node29" class="node">
<title>\\Illuminate\\Foundation\\Console\\JobMakeCommand</title>
<ellipse fill="none" stroke="#000000" cx="194.8221" cy="-738" rx="194.6444" ry="18"/>
<text text-anchor="middle" x="194.8221" y="-733.8" font-family="Times,serif" font-size="14.00" fill="#c0c0c0">\Illuminate\Foundation\Console\JobMakeCommand</text>
</g>
<!-- \\OhMyBrew\\ShopifyApp\\Console\\WebhookJobMakeCommand&#45;&gt;\\Illuminate\\Foundation\\Console\\JobMakeCommand -->
<g id="edge12" class="edge">
<title>\\OhMyBrew\\ShopifyApp\\Console\\WebhookJobMakeCommand&#45;&gt;\\Illuminate\\Foundation\\Console\\JobMakeCommand</title>
<path fill="none" stroke="#000000" d="M464.7176,-738C445.0315,-738 422.9391,-738 400.0934,-738"/>
<polygon fill="none" stroke="#000000" points="399.907,-734.5001 389.907,-738 399.9069,-741.5001 399.907,-734.5001"/>
</g>
<!-- \\OhMyBrew\\ShopifyApp\\ShopifyAppProvider -->
<g id="node19" class="node">
<title>\\OhMyBrew\\ShopifyApp\\ShopifyAppProvider</title>
<polygon fill="none" stroke="#000000" points="609.5755,-220 474.9366,-220 474.9366,-184 609.5755,-184 609.5755,-220"/>
<text text-anchor="middle" x="542.2561" y="-198.7" font-family="Courier,monospace" font-size="11.00" fill="#000000">ShopifyAppProvider</text>
</g>
<!-- \\Illuminate\\Support\\ServiceProvider -->
<g id="node25" class="node">
<title>\\Illuminate\\Support\\ServiceProvider</title>
<ellipse fill="none" stroke="#000000" cx="194.8221" cy="-202" rx="138.6071" ry="18"/>
<text text-anchor="middle" x="194.8221" y="-197.8" font-family="Times,serif" font-size="14.00" fill="#c0c0c0">\Illuminate\Support\ServiceProvider</text>
</g>
<!-- \\OhMyBrew\\ShopifyApp\\ShopifyAppProvider&#45;&gt;\\Illuminate\\Support\\ServiceProvider -->
<g id="edge4" class="edge">
<title>\\OhMyBrew\\ShopifyApp\\ShopifyAppProvider&#45;&gt;\\Illuminate\\Support\\ServiceProvider</title>
<path fill="none" stroke="#000000" d="M474.8554,-202C437.5347,-202 389.5767,-202 343.932,-202"/>
<polygon fill="none" stroke="#000000" points="343.927,-198.5001 333.9269,-202 343.9269,-205.5001 343.927,-198.5001"/>
</g>
<!-- \\OhMyBrew\\ShopifyApp\\ShopifyApp -->
<g id="node20" class="node">
<title>\\OhMyBrew\\ShopifyApp\\ShopifyApp</title>
<polygon fill="none" stroke="#000000" points="583.2668,-166 501.2453,-166 501.2453,-130 583.2668,-130 583.2668,-166"/>
<text text-anchor="middle" x="542.2561" y="-144.7" font-family="Courier,monospace" font-size="11.00" fill="#000000">ShopifyApp</text>
</g>
<!-- \\CreateShopsTable -->
<g id="node21" class="node">
<title>\\CreateShopsTable</title>
<polygon fill="none" stroke="#000000" points="602.8739,-106 481.6383,-106 481.6383,-70 602.8739,-70 602.8739,-106"/>
<text text-anchor="middle" x="542.2561" y="-84.7" font-family="Courier,monospace" font-size="11.00" fill="#000000">CreateShopsTable</text>
</g>
<!-- \\Illuminate\\Database\\Migrations\\Migration -->
<g id="node23" class="node">
<title>\\Illuminate\\Database\\Migrations\\Migration</title>
<ellipse fill="none" stroke="#000000" cx="194.8221" cy="-61" rx="162.7365" ry="18"/>
<text text-anchor="middle" x="194.8221" y="-56.8" font-family="Times,serif" font-size="14.00" fill="#c0c0c0">\Illuminate\Database\Migrations\Migration</text>
</g>
<!-- \\CreateShopsTable&#45;&gt;\\Illuminate\\Database\\Migrations\\Migration -->
<g id="edge1" class="edge">
<title>\\CreateShopsTable&#45;&gt;\\Illuminate\\Database\\Migrations\\Migration</title>
<path fill="none" stroke="#000000" d="M481.3401,-83.2661C441.7397,-80.1886 388.3612,-76.0404 338.4108,-72.1587"/>
<polygon fill="none" stroke="#000000" points="338.3826,-68.646 328.1415,-71.3606 337.8402,-75.625 338.3826,-68.646"/>
</g>
<!-- \\AddBillingToShopsTable -->
<g id="node22" class="node">
<title>\\AddBillingToShopsTable</title>
<polygon fill="none" stroke="#000000" points="622.9799,-52 461.5323,-52 461.5323,-16 622.9799,-16 622.9799,-52"/>
<text text-anchor="middle" x="542.2561" y="-30.7" font-family="Courier,monospace" font-size="11.00" fill="#000000">AddBillingToShopsTable</text>
</g>
<!-- \\AddBillingToShopsTable&#45;&gt;\\Illuminate\\Database\\Migrations\\Migration -->
<g id="edge2" class="edge">
<title>\\AddBillingToShopsTable&#45;&gt;\\Illuminate\\Database\\Migrations\\Migration</title>
<path fill="none" stroke="#000000" d="M461.2367,-40.2962C424.5741,-43.1454 380.1211,-46.5999 338.1174,-49.8641"/>
<polygon fill="none" stroke="#000000" points="337.7665,-46.3808 328.0678,-50.6451 338.3089,-53.3597 337.7665,-46.3808"/>
</g>
</g>
</svg>
